<?xml version="1.0" encoding="UTF-8" standalone="no"?>
<!DOCTYPE svg PUBLIC "-//W3C//DTD SVG 1.1//EN" "http://www.w3.org/Graphics/SVG/1.1/DTD/svg11.dtd">
<svg width="100%" height="100%" viewBox="0 0 1323 533" version="1.1" xmlns="http://www.w3.org/2000/svg" xmlns:xlink="http://www.w3.org/1999/xlink" xml:space="preserve" xmlns:serif="http://www.serif.com/" style="fill-rule:evenodd;clip-rule:evenodd;stroke-linejoin:round;stroke-miterlimit:2;">
    <g id="MAITY-Space" serif:id="MAITY Space" transform="matrix(0.563306,0,0,0.563306,-326.586,-83.1653)">
        <g id="path34" transform="matrix(5.54876,0,0,5.54876,37.5785,-2462.89)">
            <path d="M306.143,629.317C306.143,630.976 305.578,632.224 304.446,633.061C303.314,633.913 301.702,634.34 299.609,634.34C298.462,634.34 297.462,634.278 296.609,634.154C295.772,634.03 294.912,633.805 294.028,633.479L294.028,629.201C294.85,629.573 295.757,629.875 296.749,630.108C297.726,630.34 298.601,630.456 299.377,630.456C300.539,630.456 301.121,630.193 301.121,629.666C301.121,629.402 300.958,629.162 300.632,628.945C300.307,628.728 299.369,628.309 297.819,627.689C296.392,627.116 295.4,626.457 294.842,625.713C294.284,624.968 294.005,624.031 294.005,622.899C294.005,621.473 294.555,620.356 295.656,619.55C296.772,618.744 298.338,618.341 300.353,618.341C301.376,618.341 302.338,618.457 303.237,618.69C304.12,618.907 305.051,619.233 306.027,619.667L304.562,623.085C303.865,622.775 303.12,622.504 302.33,622.271C301.539,622.054 300.896,621.945 300.4,621.945C299.516,621.945 299.074,622.163 299.074,622.597C299.074,622.86 299.229,623.085 299.539,623.271C299.849,623.457 300.725,623.837 302.167,624.41C303.252,624.844 304.058,625.279 304.585,625.713C305.128,626.131 305.523,626.635 305.771,627.224C306.019,627.798 306.143,628.495 306.143,629.317L306.143,629.317ZM318.352,634.34C317.577,634.34 316.879,634.208 316.259,633.944C315.639,633.681 315.026,633.216 314.422,632.549L314.189,632.549C314.344,633.634 314.422,634.309 314.422,634.572L314.422,640.758L309.097,640.758L309.097,618.62L313.422,618.62L314.189,620.597L314.422,620.597C315.414,619.093 316.778,618.341 318.514,618.341C320.235,618.341 321.576,619.054 322.537,620.48C323.514,621.891 324.002,623.837 324.002,626.317C324.002,628.798 323.498,630.751 322.491,632.177C321.468,633.619 320.088,634.34 318.352,634.34L318.352,634.34ZM316.584,622.527C315.794,622.527 315.243,622.806 314.933,623.364C314.623,623.922 314.453,624.751 314.422,625.852L314.422,626.271C314.422,627.604 314.6,628.565 314.957,629.154C315.313,629.743 315.871,630.038 316.631,630.038C317.313,630.038 317.809,629.743 318.119,629.154C318.429,628.581 318.584,627.612 318.584,626.247C318.584,624.93 318.429,623.984 318.119,623.41C317.809,622.821 317.298,622.527 316.584,622.527ZM340.792,634.061L337.118,634.061L336.094,632.014L335.978,632.014C335.265,632.913 334.536,633.526 333.792,633.851C333.048,634.177 332.079,634.34 330.886,634.34C329.444,634.34 328.304,633.898 327.467,633.014C326.63,632.146 326.212,630.921 326.212,629.34C326.212,627.697 326.785,626.472 327.932,625.666C329.08,624.86 330.738,624.41 332.909,624.317L335.467,624.248L335.467,624.015C335.467,622.744 334.839,622.108 333.583,622.108C332.467,622.108 331.041,622.488 329.304,623.248L327.77,619.736C329.568,618.806 331.839,618.341 334.583,618.341C336.552,618.341 338.079,618.837 339.164,619.829C340.249,620.806 340.792,622.178 340.792,623.945L340.792,634.061ZM333.164,630.573C333.8,630.573 334.35,630.371 334.815,629.968C335.265,629.549 335.49,629.015 335.49,628.363L335.49,627.178L334.281,627.224C332.529,627.286 331.653,627.929 331.653,629.154C331.653,630.1 332.157,630.573 333.164,630.573L333.164,630.573ZM351.465,634.34C348.938,634.34 347.024,633.658 345.721,632.293C344.419,630.929 343.768,628.968 343.768,626.41C343.768,623.852 344.466,621.868 345.861,620.457C347.272,619.046 349.279,618.341 351.884,618.341C353.667,618.341 355.349,618.736 356.93,619.527L355.372,623.457C354.721,623.178 354.124,622.953 353.581,622.783C353.039,622.612 352.473,622.527 351.884,622.527C351.016,622.527 350.349,622.868 349.884,623.55C349.403,624.217 349.163,625.162 349.163,626.387C349.163,628.852 350.078,630.084 351.907,630.084C353.473,630.084 354.969,629.635 356.395,628.736L356.395,632.968C355.031,633.882 353.387,634.34 351.465,634.34L351.465,634.34ZM366.929,634.34C364.355,634.34 362.356,633.658 360.929,632.293C359.503,630.914 358.79,628.96 358.79,626.433C358.79,623.829 359.449,621.829 360.767,620.434C362.084,619.039 363.968,618.341 366.417,618.341C368.743,618.341 370.541,618.953 371.812,620.178C373.068,621.387 373.696,623.131 373.696,625.41L373.696,627.782L364.185,627.782C364.216,628.65 364.534,629.325 365.138,629.805C365.727,630.301 366.534,630.549 367.557,630.549C368.502,630.549 369.363,630.456 370.138,630.27C370.929,630.1 371.781,629.798 372.696,629.363L372.696,633.2C371.859,633.634 370.998,633.929 370.115,634.084C369.216,634.254 368.154,634.34 366.929,634.34ZM366.603,621.969C365.983,621.969 365.464,622.17 365.045,622.573C364.611,622.961 364.363,623.581 364.301,624.434L368.859,624.434C368.844,623.689 368.635,623.093 368.231,622.643C367.828,622.193 367.285,621.969 366.603,621.969ZM395.88,629.317C395.88,630.976 395.322,632.224 394.206,633.061C393.074,633.913 391.454,634.34 389.346,634.34C388.198,634.34 387.206,634.278 386.369,634.154C385.516,634.03 384.648,633.805 383.765,633.479L383.765,629.201C384.602,629.573 385.509,629.875 386.485,630.108C387.478,630.34 388.361,630.456 389.136,630.456C390.283,630.456 390.857,630.193 390.857,629.666C390.857,629.402 390.694,629.162 390.369,628.945C390.059,628.728 389.121,628.309 387.555,627.689C386.144,627.116 385.16,626.457 384.602,625.713C384.028,624.968 383.741,624.031 383.741,622.899C383.741,621.473 384.3,620.356 385.416,619.55C386.516,618.744 388.082,618.341 390.113,618.341C391.136,618.341 392.09,618.457 392.973,618.69C393.872,618.907 394.802,619.233 395.764,619.667L394.322,623.085C393.609,622.775 392.857,622.504 392.066,622.271C391.276,622.054 390.632,621.945 390.136,621.945C389.268,621.945 388.834,622.163 388.834,622.597C388.834,622.86 388.981,623.085 389.276,623.271C389.586,623.457 390.47,623.837 391.927,624.41C393.012,624.844 393.818,625.279 394.345,625.713C394.872,626.131 395.26,626.635 395.508,627.224C395.756,627.798 395.88,628.495 395.88,629.317L395.88,629.317ZM412.599,634.061L408.925,634.061L407.902,632.014L407.786,632.014C407.073,632.913 406.344,633.526 405.6,633.851C404.856,634.177 403.887,634.34 402.693,634.34C401.252,634.34 400.112,633.898 399.275,633.014C398.438,632.146 398.019,630.921 398.019,629.34C398.019,627.697 398.593,626.472 399.74,625.666C400.872,624.86 402.523,624.41 404.693,624.317L407.274,624.248L407.274,624.015C407.274,622.744 406.646,622.108 405.391,622.108C404.275,622.108 402.848,622.488 401.112,623.248L399.577,619.736C401.376,618.806 403.647,618.341 406.391,618.341C408.36,618.341 409.887,618.837 410.972,619.829C412.057,620.806 412.599,622.178 412.599,623.945L412.599,634.061ZM404.972,630.573C405.608,630.573 406.158,630.371 406.623,629.968C407.073,629.549 407.298,629.015 407.298,628.363L407.298,627.178L406.088,627.224C404.337,627.286 403.461,627.929 403.461,629.154C403.461,630.1 403.964,630.573 404.972,630.573L404.972,630.573ZM425.668,618.62L425.668,622.62L422.366,622.62L422.366,634.061L417.041,634.061L417.041,622.62L414.995,622.62L414.995,619.992L417.157,618.69L417.157,618.434C417.157,616.403 417.576,614.938 418.413,614.039C419.234,613.156 420.568,612.714 422.413,612.714C423.11,612.714 423.777,612.768 424.412,612.876C425.048,612.985 425.784,613.171 426.621,613.435L425.459,616.899C424.808,616.713 424.172,616.62 423.552,616.62C423.133,616.62 422.831,616.744 422.645,616.993C422.459,617.241 422.366,617.651 422.366,618.225L422.366,618.62L425.668,618.62ZM435.202,634.34C432.644,634.34 430.652,633.658 429.226,632.293C427.8,630.914 427.087,628.96 427.087,626.433C427.087,623.829 427.745,621.829 429.063,620.434C430.381,619.039 432.264,618.341 434.714,618.341C437.039,618.341 438.83,618.953 440.085,620.178C441.357,621.387 441.992,623.131 441.992,625.41L441.992,627.782L432.481,627.782C432.512,628.65 432.822,629.325 433.412,629.805C434.016,630.301 434.83,630.549 435.853,630.549C436.783,630.549 437.644,630.456 438.434,630.27C439.225,630.1 440.078,629.798 440.992,629.363L440.992,633.2C440.155,633.634 439.287,633.929 438.388,634.084C437.504,634.254 436.442,634.34 435.202,634.34ZM434.9,621.969C434.264,621.969 433.737,622.17 433.319,622.573C432.9,622.961 432.652,623.581 432.574,624.434L437.155,624.434C437.14,623.689 436.931,623.093 436.528,622.643C436.125,622.193 435.582,621.969 434.9,621.969ZM452.573,630.131C453.286,630.131 454.146,629.952 455.154,629.596L455.154,633.479C454.425,633.789 453.735,634.006 453.084,634.13C452.449,634.27 451.689,634.34 450.805,634.34C449.023,634.34 447.736,633.898 446.945,633.014C446.155,632.146 445.759,630.797 445.759,628.968L445.759,622.62L443.899,622.62L443.899,620.457L446.271,618.783L447.643,615.527L451.131,615.527L451.131,618.62L454.921,618.62L454.921,622.62L451.131,622.62L451.131,628.619C451.131,629.627 451.612,630.131 452.573,630.131L452.573,630.131ZM462.06,633.851L455.968,618.62L461.595,618.62L464.2,627.48C464.324,627.945 464.409,628.503 464.455,629.154L464.571,629.154C464.649,628.534 464.757,627.984 464.897,627.503L467.594,618.62L473.013,618.62L466.92,635.037C466.13,637.13 465.168,638.611 464.037,639.479C462.889,640.331 461.401,640.758 459.572,640.758C458.859,640.758 458.13,640.68 457.386,640.525L457.386,636.34C457.867,636.448 458.417,636.502 459.037,636.502C459.518,636.502 459.936,636.417 460.293,636.247C460.634,636.061 460.936,635.805 461.2,635.479C461.463,635.138 461.75,634.596 462.06,633.851L462.06,633.851Z" style="fill:rgb(15,70,98);fill-rule:nonzero;"/>
        </g>
        <g id="rect34" transform="matrix(5.54876,0,0,5.54876,37.5785,-2462.89)">
            <rect x="479.983" y="625.569" width="29.323" height="2.325" style="fill:rgb(15,70,98);"/>
        </g>
        <g id="rect33" transform="matrix(5.54876,0,0,5.54876,37.5785,-2462.89)">
            <rect x="257.699" y="625.569" width="29.323" height="2.325" style="fill:rgb(15,70,98);"/>
        </g>
        <g id="path26" transform="matrix(5.54876,0,0,5.54876,37.5785,-2462.89)">
            <path d="M159.103,470.471C157.798,470.499 156.133,471.428 154.716,472.038L154.716,472.038C135.432,480.86 138.099,479.629 128.662,482.706C119.225,485.784 109.993,487.63 106.505,488.246C103.018,488.861 98.816,489.467 98.816,489.467C97.901,489.631 97.689,490.471 97.716,491.592C97.797,494.941 98.099,501.101 98.099,501.101C98.099,501.101 98.45,516.198 98.661,520.843C99.098,530.464 100.253,536.722 102.924,546.994C104.708,553.854 108.142,563.503 111.758,570.378C115.959,578.367 121.263,586.043 126.154,591.79C131.045,597.537 133.834,600.769 140.296,606.483C146.064,611.584 150.337,614.726 152.519,615.81C153.677,616.385 155.768,617.39 157.073,617.702C158.292,617.994 159.103,618.004 159.103,618.004C159.103,618.004 159.914,617.993 161.133,617.702C162.438,617.39 164.529,616.385 165.687,615.81C167.869,614.726 172.143,611.584 177.91,606.483C184.372,600.769 187.162,597.537 192.053,591.79C196.944,586.043 202.247,578.367 206.448,570.378C210.064,563.503 213.498,553.854 215.282,546.994C217.953,536.722 219.108,530.464 219.545,520.843C219.757,516.198 220.108,501.101 220.108,501.101C220.108,501.101 220.41,494.941 220.491,491.592C220.519,490.471 220.305,489.631 219.39,489.467C219.39,489.467 215.188,488.861 211.701,488.246C208.213,487.63 198.981,485.784 189.544,482.706C180.107,479.629 182.774,480.86 163.49,472.038L163.49,472.038C162.073,471.428 160.408,470.499 159.103,470.471L159.103,503.147C164.719,503.24 170.225,504.731 175.12,507.486C177.949,505.845 180.546,504.625 182.852,503.95C185.678,503.124 188.361,503.008 190.229,504.504C192.097,505.999 192.316,508.437 191.778,511.095C191.241,513.752 189.905,516.885 187.914,520.423C186.677,522.622 185.156,524.985 183.434,527.443C183.671,529.131 182.842,531.666 181.183,534.323C178.317,538.906 173.709,542.692 170.726,542.915C170.12,543.562 169.524,544.209 168.898,544.857C160.496,553.56 151.92,560.659 144.724,565.161C141.125,567.412 137.884,569.02 135.059,569.847C132.233,570.673 129.549,570.788 127.681,569.293C125.813,567.798 125.595,565.359 126.133,562.702C126.654,560.126 127.939,557.095 129.829,553.689C126.822,548.611 125.197,542.833 125.117,536.932C125.117,536.932 125.117,536.931 125.117,536.931C125.117,518.395 140.37,503.143 158.906,503.143C158.972,503.144 159.037,503.146 159.103,503.148L159.103,470.471ZM186.578,506.464C185.903,506.446 185.006,506.566 183.856,506.902C182.301,507.357 180.387,508.203 178.265,509.348C179.842,510.428 181.324,511.641 182.696,512.972C181.659,515.314 179.938,518.323 177.678,521.699C176.509,522.155 175.399,522.777 174.375,523.49C170.36,526.319 167.082,530.201 165.016,534.66C164.363,536.049 163.864,537.541 163.663,539.068C163.246,539.509 162.848,539.955 162.422,540.394C152.782,550.311 142.005,558.283 135.785,561.457C134.347,560.071 133.035,558.562 131.864,556.945C130.634,559.397 129.817,561.55 129.477,563.23C129.039,565.394 129.415,566.53 129.942,566.951C130.469,567.373 131.754,567.567 134.055,566.894C136.356,566.222 139.397,564.753 142.823,562.61C149.675,558.323 158.112,551.365 166.358,542.824C166.998,542.161 167.608,541.499 168.226,540.837C168.026,539.149 168.855,536.655 170.484,534.044C173.301,529.547 177.801,525.808 180.792,525.48C182.372,523.209 183.765,521.036 184.892,519.033C186.787,515.665 187.996,512.731 188.434,510.567C188.872,508.403 188.495,507.268 187.968,506.846C187.705,506.635 187.252,506.481 186.578,506.464L186.578,506.464ZM190.52,525.304C191.923,529.022 192.659,532.958 192.695,536.932C192.687,555.388 177.559,570.598 159.103,570.706C159.037,570.711 158.972,570.716 158.906,570.72C155.077,570.677 151.283,569.982 147.687,568.667C155.459,563.853 163.744,556.642 172.019,548.129C172.391,547.746 172.724,547.366 173.09,546.984C173.616,546.819 174.131,546.621 174.627,546.388C177.594,545.031 180.082,542.825 182.239,540.412C184.505,537.837 186.385,534.876 187.48,531.612C187.745,530.791 187.939,529.935 188.039,529.07C188.916,527.801 189.758,526.541 190.52,525.304L190.52,525.304Z" style="fill:rgb(15,70,98);fill-rule:nonzero;"/>
        </g>
        <g id="path29" transform="matrix(5.54876,0,0,5.54876,37.5785,-2462.89)">
            <path d="M263.963,547.243L292.25,547.243C294.88,547.243 296.821,548.666 298.074,551.513C298.136,551.868 298.167,552.17 298.167,552.418L298.167,554.344C298.167,556.355 296.898,558.08 294.361,559.518C293.356,559.859 292.544,560.029 291.925,560.029L259.09,560.029L259.09,566.503L278.629,566.503C286.549,566.503 292.451,569.001 296.334,573.998C297.556,575.885 298.167,577.479 298.167,578.778L298.167,586.459C298.167,589.46 296.156,592.407 292.134,595.3C288.282,597.605 284.499,598.758 280.787,598.758L251.711,598.758C249.746,598.758 248.037,597.644 246.583,595.416C246.242,594.704 246.072,594.055 246.072,593.467L246.072,592.075C246.072,589.46 247.604,587.534 250.667,586.297C251.363,586.08 252.152,585.972 253.034,585.972L285.265,585.972L285.265,579.498L264.613,579.498C258.858,579.498 253.908,577.703 249.762,574.114C247.302,571.639 246.072,569.133 246.072,566.596L246.072,560.098C246.072,555.875 248.973,552.255 254.774,549.239C258.147,547.908 261.21,547.243 263.963,547.243ZM307.797,547.243L338.474,547.243C342.867,547.243 346.905,549.301 350.587,553.415C352.768,556.556 353.858,559.503 353.858,562.256L353.858,564.368C353.858,568.545 351.809,572.436 347.709,576.04C344.584,578.268 341.405,579.382 338.172,579.382L314.689,579.382L314.689,592.585C314.689,595.385 313.072,597.404 309.839,598.642C309.483,598.719 309.189,598.757 308.957,598.757L307.519,598.757C305.337,598.757 303.551,597.443 302.158,594.813C301.895,594.117 301.764,593.505 301.764,592.979L301.764,553.23C301.764,550.615 303.295,548.689 306.358,547.452C306.884,547.312 307.364,547.243 307.797,547.243L307.797,547.243ZM340.933,560.029L314.689,560.029L314.689,566.712L340.933,566.712L340.933,560.029ZM383.027,547.243L384.141,547.243C386.801,547.243 388.952,549.362 390.592,553.601C402.875,577.811 409.194,590.396 409.55,591.355L409.55,593.304C409.55,595.486 408.111,597.234 405.234,598.549C404.615,598.688 404.112,598.758 403.725,598.758L402.797,598.758C400.121,598.758 397.955,596.569 396.3,592.191C387.838,575.468 383.545,567.06 383.421,566.967C373.969,585.98 368.98,595.872 368.454,596.646C367.031,598.054 365.569,598.758 364.069,598.758L363.164,598.758C360.982,598.758 359.188,597.443 357.78,594.813C357.563,594.039 357.455,593.428 357.455,592.98L357.455,592.191C357.455,591.232 358.677,588.462 361.122,583.883L378.432,549.68C379.809,548.055 381.341,547.243 383.027,547.243L383.027,547.243ZM438.811,547.243L459.394,547.243C461.575,547.243 463.393,548.519 464.847,551.072C465.11,551.861 465.241,552.472 465.241,552.905L465.241,554.344C465.241,556.401 463.95,558.126 461.366,559.518C460.531,559.859 459.742,560.029 458.999,560.029L441.665,560.029C434.828,560.029 429.893,562.898 426.861,568.638C426.335,570.231 426.072,571.755 426.072,573.209C426.072,577.881 428.732,581.632 434.054,584.463C436.405,585.469 438.672,585.972 440.853,585.972L458.373,585.972C461.73,585.972 463.988,587.565 465.148,590.752L465.241,591.75L465.241,593.188C465.241,595.184 464.011,596.87 461.552,598.247C460.855,598.587 460.206,598.758 459.602,598.758L438.161,598.758C432.53,598.758 426.992,596.491 421.547,591.959C418.468,588.834 416.588,586.366 415.908,584.556C414.067,580.89 413.146,577.371 413.146,573.998L413.146,572.095C413.146,565.969 415.707,560.184 420.827,554.738C426.334,549.741 432.329,547.243 438.811,547.243ZM474.871,547.243L515.085,547.243C517.282,547.243 519.099,548.519 520.538,551.072C520.801,551.861 520.933,552.472 520.933,552.905L520.933,554.344C520.933,556.401 519.641,558.126 517.057,559.518C516.222,559.859 515.433,560.029 514.691,560.029L481.763,560.029L481.763,566.596L507.219,566.596C510.452,566.596 512.625,567.88 513.739,570.448C514.079,571.19 514.25,571.871 514.25,572.49L514.25,573.395C514.25,576.009 512.718,577.935 509.655,579.173C509.145,579.312 508.665,579.382 508.216,579.382L481.763,579.382L481.763,585.972L513.971,585.972C517.746,585.972 520.066,587.805 520.933,591.471L520.933,593.188C520.933,595.184 519.703,596.87 517.243,598.247C516.547,598.587 515.897,598.758 515.294,598.758L474.593,598.758C472.411,598.758 470.625,597.443 469.232,594.813C468.969,594.117 468.838,593.506 468.838,592.98L468.838,553.23C468.838,550.615 470.369,548.69 473.433,547.452C473.958,547.313 474.438,547.243 474.871,547.243L474.871,547.243Z" style="fill:rgb(15,70,98);fill-rule:nonzero;"/>
        </g>
        <g id="path28" transform="matrix(5.54876,0,0,5.54876,37.5785,-2462.89)">
            <path d="M253.095,480.272L254.188,480.272C256.482,480.272 259.033,482.001 261.839,485.458C261.931,485.458 266.83,490.341 276.535,500.108C288.921,487.551 295.208,481.256 295.394,481.225C296.727,480.59 297.882,480.272 298.859,480.272L299.905,480.272C302.478,480.272 304.602,481.768 306.277,484.76C306.587,485.613 306.742,486.318 306.742,486.876L306.742,533.779C306.742,536.089 305.3,538.058 302.416,539.686C301.61,540.073 300.858,540.267 300.161,540.267L298.487,540.267C296.316,540.267 294.409,539.042 292.766,536.593C292.037,535.585 291.673,534.019 291.673,531.896L291.673,506.13C284.619,513.215 281.038,516.757 280.93,516.757C279.581,517.703 278.07,518.176 276.395,518.176C273.744,518.176 270.962,516.408 268.047,512.874C263.521,508.301 261.218,506.014 261.141,506.014L261.141,532.826C261.141,536.469 259.188,538.91 255.281,540.151C255.172,540.228 254.893,540.267 254.444,540.267L252.77,540.267C250.429,540.267 248.437,538.887 246.793,536.128C246.313,535.151 246.072,534.205 246.072,533.291L246.072,487.132C246.072,484.295 247.832,482.094 251.351,480.528C252.064,480.357 252.645,480.272 253.095,480.272L253.095,480.272ZM340.715,480.272L341.994,480.272C345.095,480.272 347.591,482.745 349.482,487.69C363.791,515.874 371.155,530.524 371.573,531.64L371.573,533.919C371.573,536.446 369.899,538.476 366.55,540.011C365.837,540.182 365.256,540.267 364.806,540.267L363.713,540.267C360.597,540.267 358.071,537.717 356.133,532.616C346.289,513.145 341.297,503.355 341.157,503.247C330.15,525.384 324.337,536.903 323.717,537.802C322.074,539.445 320.376,540.267 318.624,540.267L317.578,540.267C315.035,540.267 312.943,538.732 311.299,535.663C311.051,534.779 310.927,534.066 310.927,533.523L310.927,532.616C310.927,531.5 312.346,528.276 315.183,522.943L335.344,483.109C336.941,481.218 338.731,480.272 340.715,480.272L340.715,480.272ZM382.991,480.272L384.13,480.272C386.704,480.272 388.835,481.698 390.525,484.551C391.006,485.465 391.246,486.566 391.246,487.853L391.246,533.081C391.246,536.337 389.324,538.693 385.479,540.151C385.029,540.228 384.665,540.267 384.386,540.267L382.665,540.267C380.045,540.267 377.914,538.732 376.271,535.663C375.929,534.856 375.759,534.143 375.759,533.523L375.759,487.271C375.759,484.217 377.604,481.97 381.293,480.528C381.898,480.357 382.464,480.272 382.991,480.272L382.991,480.272ZM402.454,480.272L449.264,480.272C451.838,480.272 453.961,481.768 455.636,484.76C455.93,485.675 456.078,486.38 456.078,486.876L456.078,488.55C456.078,490.953 454.574,492.961 451.566,494.573C450.59,494.976 449.667,495.178 448.799,495.178L433.289,495.178L433.289,533.291C433.289,536.376 431.46,538.662 427.801,540.151L426.592,540.267L424.917,540.267C422.499,540.267 420.46,538.771 418.802,535.779C418.414,534.818 418.22,533.919 418.22,533.081L418.22,495.178L403.082,495.178C399.548,495.178 397.083,493.403 395.687,489.853C395.517,489.124 395.432,488.612 395.432,488.318L395.432,487.271C395.432,484.217 397.215,481.97 400.78,480.528C401.4,480.357 401.958,480.272 402.454,480.272L402.454,480.272ZM467.1,480.272L468.263,480.272C470.247,480.272 472.433,481.613 474.82,484.295C485.253,494.589 490.555,499.743 490.726,499.759C503.05,487.403 509.422,481.225 509.84,481.225C511.019,480.59 512.05,480.272 512.933,480.272L514.119,480.272C516.77,480.272 518.886,481.807 520.467,484.876C520.777,485.682 520.932,486.396 520.932,487.016L520.932,488.434C520.932,490.558 519.103,493.155 515.445,496.224L498.144,513.316L498.144,533.291C498.144,536.345 496.314,538.631 492.656,540.151L491.447,540.267L489.772,540.267C487.307,540.267 485.238,538.732 483.564,535.663C483.238,534.686 483.075,533.864 483.075,533.198L483.075,513.316C468.627,499.131 461.387,491.938 461.356,491.736C460.628,490.372 460.263,489.232 460.263,488.318L460.263,487.271C460.263,484.496 461.814,482.318 464.914,480.737C465.72,480.427 466.449,480.272 467.1,480.272L467.1,480.272Z" style="fill:rgb(15,70,98);fill-rule:nonzero;"/>
        </g>
    </g>
</svg>
